HIERARCHY
ROOT hip
{
	OFFSET 0.000000 0.000000 0.000000 
	CHANNELS 6 Xposition Yposition Zposition Xrotation Zrotation Yrotation
	JOINT abdomen
	{
		OFFSET 0.000000 3.402643 0.000000 
		CHANNELS 3 Xrotation Zrotation Yrotation
		JOINT chest
		{
			OFFSET 0.000000 8.438565 -0.680529 
			CHANNELS 3 Xrotation Zrotation Yrotation
			JOINT neck
			{
				OFFSET 0.000000 10.207942 -0.272212 
				CHANNELS 3 Xrotation Zrotation Yrotation
				JOINT head
				{
					OFFSET 0.000000 3.130431 0.000000 
					CHANNELS 3 Xrotation Zrotation Yrotation
					End Site
					{
						OFFSET 0.000000 3.130435 0.000000 
					}
				}
			}
			JOINT lCollar
			{
				OFFSET 3.470700 6.669187 -0.816635 
				CHANNELS 3 Yrotation Zrotation Xrotation
				JOINT lShldr
				{
					OFFSET 3.198488 0.000000 0.000000 
					CHANNELS 3 Zrotation Yrotation Xrotation
					JOINT lForeArm
					{
						OFFSET 10.139888 0.000000 0.000000 
						CHANNELS 3 Yrotation Zrotation Xrotation
						JOINT lHand
						{
							OFFSET 8.370511 0.000000 0.000000 
							CHANNELS 3 Zrotation Yrotation Xrotation
							End Site
							{
								OFFSET 4.083176 0.000000 0.000000 
							}
						}
					}
				}
			}
			JOINT rCollar
			{
				OFFSET -3.470700 6.669187 -0.816635 
				CHANNELS 3 Yrotation Zrotation Xrotation
				JOINT rShldr
				{
					OFFSET -3.198488 0.000000 0.000000 
					CHANNELS 3 Zrotation Yrotation Xrotation
					JOINT rForeArm
					{
						OFFSET -10.139888 0.000000 0.000000 
						CHANNELS 3 Yrotation Zrotation Xrotation
						JOINT rHand
						{
							OFFSET -8.370511 0.000000 0.000000 
							CHANNELS 3 Zrotation Yrotation Xrotation
							End Site
							{
								OFFSET -4.083176 0.000000 0.000000 
							}
						}
					}
				}
			}
		}
	}
	JOINT lThigh
	{
		OFFSET 5.308129 -1.633274 1.361059 
		CHANNELS 3 Xrotation Zrotation Yrotation
		JOINT lShin
		{
			OFFSET -2.041588 -20.007561 0.000000 
			CHANNELS 3 Xrotation Zrotation Yrotation
			JOINT lFoot
			{
				OFFSET 0.000000 -19.190928 -1.224953 
				CHANNELS 3 Xrotation Yrotation Zrotation
				End Site
				{
					OFFSET 0.000000 -2.449906 4.627600 
				}
			}
		}
	}
	JOINT rThigh
	{
		OFFSET -5.308129 -1.633274 1.361059 
		CHANNELS 3 Xrotation Zrotation Yrotation
		JOINT rShin
		{
			OFFSET 2.041588 -20.007561 0.000000 
			CHANNELS 3 Xrotation Zrotation Yrotation
			JOINT rFoot
			{
				OFFSET 0.000000 -19.190928 -1.224953 
				CHANNELS 3 Xrotation Yrotation Zrotation
				End Site
				{
					OFFSET 0.000000 -2.449906 4.627600 
				}
			}
		}
	}
}
MOTION
Frames: 18
Frame Time: 0.033333
7.093429 48.712433 1.587124 -1.611328 -0.673828 -16.103630 10.361329 -8.720703 -6.349136 4.023438 7.324219 6.915308 -0.576172 0.937502 3.457185 -7.773438 -0.126953 3.759766 1.992188 -2.001953 0.000341 -53.574219 0.664063 -29.951059 -29.345699 -0.351562 -0.078065 -13.603516 -2.226563 29.823837 -2.001953 1.992188 0.000000 58.623051 11.796875 -35.662064 2.900391 0.205078 -0.039063 -4.404297 8.056641 50.265038 -8.218465 -2.137840 -0.777013 18.068348 -0.400119 1.815077 -8.238658 0.154268 2.154631 -8.754389 -7.280344 -2.762833 19.282028 0.023284 7.667694 -9.272053 -0.282186 5.501216 
7.646716 48.640869 1.180163 -0.068359 -0.800781 -16.386719 10.361329 -8.720703 -6.349136 3.134766 7.744140 6.759129 -0.625000 0.966797 3.535321 -7.685546 0.712891 3.603637 1.992188 -2.001953 0.000341 -59.707027 -3.769531 -27.481112 -22.509766 -0.322266 -0.058594 -14.765624 -0.390625 34.785088 -2.001953 1.992188 0.000000 66.064453 12.978517 -35.507813 0.185547 0.205078 -0.019531 -6.064454 8.740234 50.869141 -10.155257 -2.011614 -0.672680 17.824846 -0.439105 1.859068 -7.556844 0.102122 2.649757 -10.699148 -7.194458 -2.553406 18.892944 0.019752 6.795584 -8.370687 -0.259305 6.248923 
8.098631 48.587044 0.882951 -0.400391 -1.240234 -18.124998 10.361329 -8.720703 -6.349136 4.052734 7.363281 6.905549 -0.556641 1.162111 4.248237 -7.060547 1.406250 4.150391 1.992188 -2.001953 0.000341 -64.199219 -5.878907 -24.747095 -16.943357 -0.312500 -0.058540 -16.562500 1.572266 35.957031 -2.001953 1.992188 0.000000 72.646484 14.394531 -34.421402 -0.576172 0.205078 -0.009801 -7.705078 7.480468 50.089165 -10.324964 -2.020509 -0.695927 18.317396 -0.439391 3.475432 -7.464914 0.050896 2.796864 -10.692566 -7.118630 -2.438507 18.737177 0.019764 6.507269 -7.717882 -0.228568 6.582737 
8.605478 48.587162 0.647201 -0.791016 -1.455078 -19.287107 10.361329 -8.720703 -6.349136 4.941406 6.855469 7.041015 -0.517578 1.191406 4.365234 -6.025391 2.480469 4.014094 1.992188 -2.001953 0.000341 -69.335938 -8.652344 -23.126467 -11.728516 -0.302734 -0.039063 -17.294924 2.529297 36.816402 -2.001953 1.992188 0.000000 77.861328 14.111329 -34.187073 -0.585938 0.205078 -0.009801 -9.013672 5.791016 49.102547 -10.049775 -2.391211 -0.827951 17.721153 -0.455771 4.746982 -6.794507 0.060467 3.040178 -10.103256 -7.233244 -2.528306 18.169888 0.003257 5.168459 -7.148590 -0.217901 6.992969 
9.090027 48.221592 0.477595 -0.771484 -1.162109 -19.824217 10.361329 -8.720703 -6.349136 5.087891 6.425782 7.022577 -0.527344 1.044922 3.906250 -5.517578 2.968750 3.447772 1.992188 -2.001953 0.000341 -74.345703 -10.371094 -22.218552 -8.798827 -0.302734 -0.039011 -16.816406 3.378906 35.840420 -2.001953 1.992188 0.000000 82.099609 13.642580 -37.068008 -0.576172 0.205078 -0.009801 -11.318359 4.296875 51.093750 -10.883093 -3.094471 -0.921825 18.554201 -0.439487 5.532021 -6.944870 0.064105 3.385516 -13.411727 -7.994342 -1.787360 25.522215 -0.009858 -0.906292 -10.526961 -0.204428 8.177248 
9.454003 47.623356 0.540289 -1.943359 -1.396484 -19.551020 10.361329 -8.720703 -6.349136 6.328125 6.298829 7.159275 -0.488281 0.888672 3.339995 -3.935547 3.183594 2.841797 1.992188 -2.001953 0.000341 -78.564453 -11.933593 -20.957029 -7.041016 -0.302734 -0.029297 -16.542969 3.632813 34.355469 -2.001953 1.992188 0.000000 84.472656 10.957031 -38.894627 -0.576172 0.205078 -0.009801 -10.839844 3.681641 50.273445 -11.419069 -3.767731 -0.833248 22.286936 -0.428915 5.213800 -8.967336 0.252840 3.639041 -13.586546 -8.198880 -0.513703 33.399418 -0.031036 -9.770505 -15.552688 -0.979193 11.094599 
9.807508 47.532696 0.516025 -2.783203 -2.314453 -20.732813 10.361329 -8.720703 -6.349136 7.480469 6.328125 7.305763 -0.439453 0.917970 3.437652 -1.386719 3.759766 2.861328 1.992188 -2.001953 0.000341 -82.246094 -11.738281 -20.334015 -8.076173 -0.312500 -0.039063 -17.089844 4.335938 32.852303 -2.001953 1.992188 0.000000 85.039063 10.068358 -39.627201 -0.585938 0.205078 -0.009801 -10.039063 1.113281 49.912109 -10.983067 -3.592870 -0.690733 23.406151 -0.361246 6.298111 -9.493572 0.253708 3.744235 -10.729789 -7.107669 -0.088306 35.065262 -0.153064 -18.404682 -16.962036 -1.782307 14.138915 
10.108655 47.488354 0.382875 -3.173828 -2.675781 -22.626949 10.361329 -8.720703 -6.349136 8.046876 5.722657 7.393552 -0.400391 1.005859 3.867187 0.898438 4.003906 3.281932 1.992188 -2.001953 0.000341 -84.404297 -11.689453 -19.396507 -8.984375 -0.312500 -0.039063 -18.261719 4.746094 32.929688 -2.001953 1.992188 0.000000 85.224609 10.488282 -41.132813 -0.517578 0.185547 -0.019531 -10.878907 0.019531 55.488281 -10.896080 -3.710781 -0.783482 23.761503 -0.360113 8.339104 -9.576513 0.264649 3.545819 -7.971796 -5.620356 0.212590 36.021545 -0.183315 -23.715246 -18.895325 -2.677798 15.834894 
10.471890 47.466064 0.470451 -4.404297 -2.578125 -24.404736 10.361329 -8.720703 -6.349136 8.798827 4.433594 7.539064 -0.351563 0.976563 3.935546 3.183594 4.433594 3.272239 1.992188 -2.001953 0.000341 -85.605469 -11.562499 -18.136724 -9.648438 -0.292969 -0.039013 -19.160158 5.849610 36.142582 -2.001953 1.992188 0.000000 84.912109 10.292969 -42.654503 -0.468750 0.175781 -0.019531 -10.917969 -0.751953 59.501820 -9.817599 -4.851149 -1.296972 23.576920 -0.326732 11.015532 -9.470124 0.139500 3.322900 -7.166318 -4.930523 0.622519 42.364887 -0.205782 -24.641430 -15.562864 -1.263042 16.008425 
10.811725 47.418636 0.382999 -4.433594 -3.017578 -25.459497 10.361329 -8.720703 -6.349136 8.916016 4.599609 7.548829 -0.341797 1.093750 4.326171 5.107422 4.658203 3.711730 1.992188 -2.001953 0.000341 -86.552734 -11.630859 -16.525402 -10.878906 -0.283203 -0.029249 -18.945313 7.128906 39.444572 -2.001953 1.992188 0.000000 84.101563 9.970703 -43.388672 -0.439453 0.166016 -0.019560 -9.599609 -2.246094 62.128902 -10.252264 -4.843235 -1.354733 24.350876 -0.321236 12.250475 -9.665672 0.047419 3.356781 -7.058619 -2.333132 0.940003 47.341457 -0.135078 -24.439522 -10.767226 0.564958 13.747975 
11.145391 47.368881 0.555315 -5.595703 -3.349609 -26.679688 10.361329 -8.720703 -6.349136 9.687500 3.964844 7.666016 -0.283203 1.201173 4.824419 6.787109 5.117188 4.190324 1.992188 -2.001953 0.000341 -87.294922 -10.625000 -15.138516 -13.310547 -0.273438 -0.048828 -18.779297 7.724609 42.432949 -2.001953 1.992188 0.000000 82.880859 10.234375 -43.572483 -0.390625 0.146484 -0.019531 -8.886719 -4.580079 65.234375 -9.301398 -5.651787 -1.758857 24.737865 -0.290804 14.278103 -9.939028 -0.068441 3.261100 -5.400812 -0.283089 0.958536 50.220398 -0.060576 -23.371851 -6.173798 1.702009 15.177309 
11.524553 47.298424 0.570096 -6.162109 -3.300781 -27.939453 10.361329 -8.720703 -6.349136 9.785156 3.369141 7.675781 -0.273438 1.240234 5.019531 8.281250 5.244141 4.414955 1.992188 -2.001953 0.000341 -87.509766 -9.130859 -14.093345 -16.611328 -0.263672 -0.058549 -19.091797 8.300781 45.128361 -2.001953 1.992188 0.000000 81.542969 10.332031 -43.035355 -0.341797 0.126953 -0.019531 -7.636718 -6.181641 67.997002 -8.964231 -6.484281 -2.136400 24.601299 -0.280856 16.169403 -9.745829 -0.094339 3.246598 -5.184702 1.982529 0.727787 52.595329 -0.067196 -20.819305 -1.461559 0.842241 14.203119 
11.941442 46.902802 0.513191 -6.005859 -3.300781 -30.020088 10.361329 -8.720703 -6.349136 9.062500 3.164063 7.656250 -0.283203 1.357423 5.556867 9.833984 4.589844 5.068359 1.992188 -2.001953 0.000341 -87.324219 -6.113281 -13.740236 -21.337891 -0.263672 -0.068314 -20.253904 8.935546 46.739799 -2.001953 1.992188 0.000000 79.824219 10.888672 -40.283203 -0.312500 0.117188 -0.019531 -5.585938 -7.392579 70.087891 -11.534262 -7.065409 -2.236340 28.998640 -0.281331 18.930677 -11.750797 -0.161844 2.353345 -4.388516 4.418112 0.368046 52.596382 -0.031508 -17.807175 -3.955819 -2.718209 13.352262 
12.278231 46.758198 0.568988 -7.265625 -4.736328 -31.192211 10.361329 -8.720703 -6.349136 10.615235 3.388672 7.803311 -0.224609 1.445313 5.771485 10.585937 4.355469 5.351563 1.992188 -2.001953 0.000341 -87.412109 -3.828125 -13.408202 -25.126953 -0.273438 -0.078078 -21.484373 9.218750 45.597267 -2.001953 1.992188 0.000000 78.906250 12.451172 -39.265469 -0.263672 0.097656 -0.019531 -5.224609 -7.685547 73.426430 -10.925114 -7.059233 -2.212559 31.099510 -0.242585 20.300537 -12.727026 -0.140073 2.065724 -0.975938 7.409892 0.641226 50.524250 -0.041306 -16.410448 -7.305180 -4.462419 13.558372 
12.855989 46.044304 0.380782 -5.625000 -4.687500 -33.076172 10.361329 -8.720703 -6.349136 8.906251 4.355469 7.627694 -0.302734 1.572267 6.064715 11.601563 3.339844 5.820881 1.992188 -2.001953 0.000341 -87.207031 -0.849609 -13.261831 -28.779295 -0.292969 -0.078075 -22.929688 8.720703 42.998051 -2.001953 1.992188 0.000000 78.007813 13.818359 -36.933590 -0.224609 0.087891 -0.019531 -3.964844 -7.597657 75.858086 -15.560074 -6.911396 -1.772770 36.658379 -0.272736 21.842741 -15.094826 0.074394 1.238759 -0.926950 9.939558 0.696722 47.478474 -0.010851 -13.676911 -15.338058 -5.283330 7.909152 
13.339265 45.996387 0.073101 -4.755859 -4.873046 -35.468750 10.361329 -8.720703 -6.349136 8.271485 4.648438 7.559385 -0.302734 1.835938 6.972656 12.294923 2.607422 6.865678 1.992188 -2.001953 0.000341 -87.246094 1.240234 -13.818149 -31.718750 -0.302734 -0.087839 -23.574219 8.017579 41.690815 -2.001953 1.992188 0.000000 77.470703 16.152344 -33.483604 -0.214844 0.078125 -0.019531 -1.259766 -8.447267 76.298828 -16.670731 -6.529666 -1.665462 36.380039 -0.270463 23.809412 -14.374396 0.090322 1.068056 1.494215 11.425075 1.844665 40.354630 -0.029820 -13.248816 -22.211550 -4.340543 1.825813 
14.078452 45.842049 -0.309346 -3.955079 -4.052734 -37.841801 10.361329 -8.720703 -6.349136 7.363281 4.394531 7.470703 -0.312500 1.982422 7.519532 12.529297 1.318359 7.568330 1.992188 -2.001953 0.000341 -87.392578 2.089844 -14.384407 -33.447269 -0.312500 -0.087891 -23.867188 7.207031 41.562500 -2.001953 1.992188 0.000000 77.226563 18.964844 -30.026123 -0.214844 0.078125 -0.019531 0.732422 -8.652326 75.936005 -18.411406 -7.117348 -1.785525 35.543648 -0.314919 26.239323 -13.106268 -0.041931 1.146810 2.802974 10.966916 2.654553 34.002480 -0.074041 -14.231520 -30.767908 -3.059322 -2.282047 
14.993223 46.613350 -0.717043 -4.121093 -2.285156 -39.844139 10.361329 -8.720703 -6.349136 7.031250 3.144531 7.382813 -0.312500 1.992188 7.705078 11.445313 0.292969 7.959033 1.992188 -2.001953 0.000341 -88.212891 1.123047 -15.126760 -33.564449 -0.292969 -0.087841 -22.910156 7.519532 44.238281 -2.001953 1.992188 0.000000 77.255859 21.630861 -26.597960 -0.253906 0.097656 -0.019531 3.535156 -8.378905 72.851563 -14.195278 -8.562215 -3.091736 21.864292 -0.409787 28.819740 -5.486409 -0.566011 4.434373 1.474095 8.610909 2.928756 32.141037 -0.036451 -13.168396 -29.855423 -1.649888 -2.881667 
